<?xml version="1.0" encoding="UTF-8"?>
<svg version="1.1" xmlns="http://www.w3.org/2000/svg" width="2083" height="552">
<path d="M0 0 C0 25.41 0 50.82 0 77 C-2.99429851 77.9980995 -5.56675441 78.17246214 -8.69970703 78.2902832 C-20.26071106 78.72795159 -32.5772186 79.5772186 -41.1875 88.1875 C-47.198611 97.51508604 -47.94105294 105.33263333 -50 117 C-34.82 117 -19.64 117 -4 117 C-4 140.76 -4 164.52 -4 189 C-19.18 189 -34.36 189 -50 189 C-50 273.15 -50 357.3 -50 444 C-76.07 444 -102.14 444 -129 444 C-129 359.85 -129 275.7 -129 189 C-152.76 189 -176.52 189 -201 189 C-201 273.15 -201 357.3 -201 444 C-227.07 444 -253.14 444 -280 444 C-280 359.85 -280 275.7 -280 189 C-294.85 189 -309.7 189 -325 189 C-325 165.24 -325 141.48 -325 117 C-310.15 117 -295.3 117 -280 117 C-280 86.97 -280 56.94 -280 26 C-253.93 26 -227.86 26 -201 26 C-201 55.7 -201 85.4 -201 116 C-177.24 116 -153.48 116 -129 116 C-129 113.03 -129 110.06 -129 107 C-126.11733441 74.45253459 -113.68037411 44.78658362 -89 23 C-61.2731787 0.96899858 -35.71524087 0 0 0 Z " fill="#f8f9f4" transform="translate(1193,0)"/>
<path d="M0 0 C0.83724609 0.59820557 0.83724609 0.59820557 1.69140625 1.20849609 C36.98909634 26.74705831 60.09362062 65.57944977 69 108 C69.16081055 108.71172363 69.32162109 109.42344727 69.48730469 110.15673828 C79.42201136 155.45695231 69.315545 205.81842602 45.27441406 245.01464844 C38.27839647 255.91342528 29.96708621 265.69118032 21 275 C20.29875 275.76441406 19.5975 276.52882813 18.875 277.31640625 C7.83363108 289.00603736 -5.78688415 297.69080744 -20 305 C-20.60634277 305.31807617 -21.21268555 305.63615234 -21.83740234 305.96386719 C-41.6420812 316.25047651 -63.78795237 321.14156338 -86 322 C-87.38445312 322.061875 -87.38445312 322.061875 -88.796875 322.125 C-125.01668919 322.94352687 -157.02449279 311.96209254 -184 288 C-185.98 286.35 -187.96 284.7 -190 283 C-190.33 327.88 -190.66 372.76 -191 419 C-217.07 419 -243.14 419 -270 419 C-270 275.45 -270 131.9 -270 -16 C-246.24 -16 -222.48 -16 -198 -16 C-197.67 -3.79 -197.34 8.42 -197 21 C-193.535 17.04 -193.535 17.04 -190 13 C-142.89317649 -38.79740338 -55.15814358 -39.87828967 0 0 Z M-160 67 C-160.84175781 67.67675781 -161.68351562 68.35351562 -162.55078125 69.05078125 C-182.19084636 85.75858158 -193.62903129 110.5057128 -196 136 C-197.7463832 164.22560215 -192.25822028 192.64790135 -173.26953125 214.515625 C-172.52058594 215.33546875 -171.77164063 216.1553125 -171 217 C-169.95392578 218.16789062 -169.95392578 218.16789062 -168.88671875 219.359375 C-152.92570884 236.28329776 -128.81261961 247.8292543 -105.5625 249.203125 C-79.12342594 249.55100755 -54.92216697 239.20318999 -36 221 C-17.41642231 202.58665355 -7.00721111 177.1590409 -6.61962891 151.07177734 C-6.6725706 120.7939441 -15.50547146 93.92630814 -37 72 C-71.33034093 38.39192792 -123.12863991 37.26863097 -160 67 Z " fill="#f8f9f4" transform="translate(270,133)"/>
<path d="M0 0 C0.66964783 0.00215515 1.33929565 0.0043103 2.02923584 0.00653076 C49.05816556 0.24757615 93.17534811 19.34676792 126.32226562 52.69580078 C130.14394018 56.67490909 133.54573541 60.92043172 136.875 65.3125 C137.94234375 66.63894531 137.94234375 66.63894531 139.03125 67.9921875 C167.63262675 104.34816288 177.7752722 151.06556761 173.10571289 196.53369141 C168.19756057 237.46303297 150.83693217 272.35056783 121.875 301.3125 C121.31039063 301.92351562 120.74578125 302.53453125 120.1640625 303.1640625 C91.97516039 333.2057563 47.14099864 347.73730201 6.875 349.3125 C5.50988281 349.374375 5.50988281 349.374375 4.1171875 349.4375 C-26.94736007 350.14552388 -56.98044692 342.15848249 -84.125 327.3125 C-84.74826172 326.97524902 -85.37152344 326.63799805 -86.01367188 326.29052734 C-96.6739959 320.44731644 -105.92155494 313.21964947 -115.125 305.3125 C-116.10984375 304.47074219 -117.0946875 303.62898438 -118.109375 302.76171875 C-151.08428834 273.8337266 -171.13958461 229.83808825 -174 186.3359375 C-176.02009832 137.47480947 -160.47606972 91.46739177 -127.29052734 55.31396484 C-94.20078107 20.15341306 -48.42852655 -0.21491041 0 0 Z M-66.8125 102.5 C-86.37917543 122.72270099 -95.25658597 149.94604215 -95.15625 177.7265625 C-94.41298183 206.433231 -82.70886492 232.66398348 -61.875 252.5 C-47.26029888 265.343839 -26.91595371 275.48930608 -7.125 276.3125 C-5.97902344 276.3640625 -4.83304688 276.415625 -3.65234375 276.46875 C19.16732116 277.15115963 42.34160719 270.47271793 59.3125 254.75 C61.18518362 252.95534487 63.02973331 251.13563456 64.875 249.3125 C65.51824219 248.74144531 66.16148437 248.17039062 66.82421875 247.58203125 C85.04752337 231.05786925 93.60868676 203.4846478 95.09765625 179.765625 C95.81377037 150.74743526 85.90526881 123.47219518 66.05859375 102.28515625 C27.64792262 62.1288279 -27.90554558 65.7727069 -66.8125 102.5 Z " fill="#f8f9f4" transform="translate(524.125,105.6875)"/>
<path d="M0 0 C0.71175385 -0.00067474 1.42350769 -0.00134949 2.15682983 -0.00204468 C13.91116227 0.01561066 25.24528071 0.72378543 36.75 3.25 C37.91281494 3.49943359 37.91281494 3.49943359 39.09912109 3.75390625 C63.90682085 9.2475121 88.10091499 20.01336113 107.75 36.25 C108.53165527 36.88373535 108.53165527 36.88373535 109.32910156 37.53027344 C144.73472427 66.26192577 167.24392019 105.90517019 173.33984375 151.2265625 C178.26633832 199.77797971 166.92761896 248.45415039 135.984375 286.69921875 C123.062078 302.38670658 108.22337615 314.92586742 90.75 325.25 C90.11787598 325.62366699 89.48575195 325.99733398 88.83447266 326.38232422 C63.58825068 341.04727109 35.72504621 347.65693472 6.75 349.25 C5.65945313 349.31058594 4.56890625 349.37117188 3.4453125 349.43359375 C-43.74850426 350.56998877 -87.18238032 331.01792164 -121.25 299.25 C-122.04019531 298.52554687 -122.83039063 297.80109375 -123.64453125 297.0546875 C-152.34458188 269.69922728 -171.9383789 227.49082674 -173.3762207 187.76245117 C-173.4571027 183.65338896 -173.49659493 179.54725032 -173.5 175.4375 C-173.50067474 174.70456726 -173.50134949 173.97163452 -173.50204468 173.2164917 C-173.48471447 161.33639344 -172.82116271 149.87590699 -170.25 138.25 C-170.08371094 137.47624023 -169.91742187 136.70248047 -169.74609375 135.90527344 C-160.984159 96.33053483 -138.1182404 61.14578111 -106.25 36.25 C-105.27933594 35.47785156 -104.30867188 34.70570313 -103.30859375 33.91015625 C-79.89513135 16.18487245 -52.09984601 5.77506935 -23.25 1.25 C-22.05890625 1.05792969 -20.8678125 0.86585937 -19.640625 0.66796875 C-13.12945808 -0.09772005 -6.54713595 0.00557734 0 0 Z M-64.7890625 100.69970703 C-84.90271634 120.38555083 -94.28094075 147.10484234 -94.625 174.8125 C-94.58544361 203.05575935 -85.1005351 228.16489433 -65.25 248.25 C-64.59386719 248.97832031 -63.93773437 249.70664062 -63.26171875 250.45703125 C-48.11434672 266.90182273 -24.63017468 275.23515944 -2.76171875 276.59375 C22.08951232 277.46789974 45.54658611 268.07436738 63.75 251.25 C82.66381329 233.33474207 94.00877103 207.42660111 95.02734375 181.48046875 C95.75652874 150.33737217 86.27752806 122.96010278 64.75 100.25 C57.88439142 93.21030309 50.29461096 88.07220618 41.75 83.25 C40.8940625 82.7653125 40.038125 82.280625 39.15625 81.78125 C3.99701419 63.06009847 -36.99198666 74.51648427 -64.7890625 100.69970703 Z " fill="#f8f9f4" transform="translate(1351.25,105.75)"/>
<path d="M0 0 C15.1025247 13.28019894 27.25478696 29.8256646 36.33984375 47.71484375 C36.65646973 48.33037109 36.9730957 48.94589844 37.29931641 49.58007812 C42.39501269 59.59584879 46.26773755 69.91197166 49.33984375 80.71484375 C49.58541016 81.53952148 49.83097656 82.36419922 50.08398438 83.21386719 C57.99536685 110.86195714 58.20489604 147.05933483 50.33984375 174.71484375 C50.04964355 175.75979004 49.75944336 176.80473633 49.46044922 177.88134766 C41.49046143 205.73812292 28.42997526 229.81571366 8.33984375 250.71484375 C7.89705078 251.18341797 7.45425781 251.65199219 6.99804688 252.13476562 C-23.63231533 284.44580614 -67.45089334 301.98538603 -111.66015625 303.71484375 C-113.02527344 303.77671875 -113.02527344 303.77671875 -114.41796875 303.83984375 C-158.10103885 304.83546928 -202.52786799 289.15054341 -234.32421875 258.9296875 C-236.35413498 257.00500104 -238.43471078 255.2349277 -240.59765625 253.46484375 C-270.84860096 226.91055216 -289.26108182 183.64630945 -292.41796875 144.09765625 C-295.21600265 99.02275975 -282.9643554 52.08424035 -252.66015625 17.71484375 C-251.94085937 16.88597656 -251.2215625 16.05710938 -250.48046875 15.203125 C-248.24490283 12.66921844 -245.96576227 10.18513592 -243.66015625 7.71484375 C-242.86351562 6.85246094 -242.066875 5.99007812 -241.24609375 5.1015625 C-175.94877301 -63.05621489 -68.87475854 -59.16554148 0 0 Z M-184.66015625 56.71484375 C-204.14388804 76.42215935 -213.06333154 101.79889386 -213.91015625 129.21484375 C-213.0081375 158.41770093 -203.01973373 185.36884951 -181.66015625 205.71484375 C-163.11721661 222.68663519 -139.51091505 231.70480853 -114.2890625 231.0234375 C-88.68985902 229.70038195 -67.11592589 218.70151492 -49.69921875 200.19140625 C-31.93502731 180.40728149 -22.95592871 153.43722648 -23.47265625 127.01953125 C-25.20287301 96.52446093 -37.40816263 69.67191181 -60.06933594 49.07617188 C-98.27261749 16.38410651 -149.80207573 22.80338842 -184.66015625 56.71484375 Z " fill="#f8f9f4" transform="translate(2028.66015625,151.28515625)"/>
<path d="M0 0 C26.07 0 52.14 0 79 0 C79 143.88 79 287.76 79 436 C52.93 436 26.86 436 0 436 C0 292.12 0 148.24 0 0 Z " fill="#f8f9f4" transform="translate(1537,8)"/>
<path d="M0 0 C0 24.09 0 48.18 0 73 C-9.405 74.485 -9.405 74.485 -19 76 C-35.64714154 80.23745421 -49.89418198 87.6387009 -59.375 102.375 C-69.57487602 120.03970464 -70.13985629 138.51346614 -70.20532227 158.39306641 C-70.2149148 160.24673677 -70.22492566 162.10040501 -70.23532104 163.95407104 C-70.26222724 168.96156996 -70.28331365 173.96907817 -70.30332303 178.97660875 C-70.32527127 184.21899109 -70.35261651 189.46134527 -70.37937927 194.70370483 C-70.42918713 204.6198272 -70.47416988 214.5359653 -70.51740164 224.45211828 C-70.5668761 235.74598705 -70.62175621 247.03982756 -70.67708123 258.33366895 C-70.79071838 281.55575417 -70.89688335 304.77786552 -71 328 C-97.07 328 -123.14 328 -150 328 C-150 221.08 -150 114.16 -150 4 C-125.91 4 -101.82 4 -77 4 C-76.67 13.9 -76.34 23.8 -76 34 C-74.47375 32.22625 -72.9475 30.4525 -71.375 28.625 C-52.36772327 7.54095968 -27.88466636 0 0 0 Z " fill="#f8f9f4" transform="translate(857,116)"/>
<path d="M0 0 C27.06 0 54.12 0 82 0 C82 131.01 82 262.02 82 397 C55.6 397 29.2 397 2 397 C2 292.72 2 188.44 2 81 C27.41 80.67 52.82 80.34 79 80 C73.2971875 74.30878906 67.594375 68.61757812 61.71875 62.75390625 C58.11821475 59.15847739 54.51782694 55.56290332 50.91796875 51.96679688 C45.19756422 46.25238222 39.47668045 40.53845471 33.75244141 34.82788086 C29.14015751 30.22660242 24.53046356 25.62273936 19.92237854 21.01725578 C18.15929222 19.25602459 16.39532257 17.49567721 14.63047791 15.73620796 C12.16866164 13.28159569 9.70993668 10.82392789 7.25195312 8.36547852 C6.51324478 7.63036545 5.77453644 6.89525238 5.01344299 6.13786316 C4.34872482 5.47177032 3.68400665 4.80567749 2.99914551 4.11940002 C2.41657234 3.53774865 1.83399918 2.95609728 1.23377228 2.35682011 C0 1 0 1 0 0 Z " fill="#f8f9f4" transform="translate(1636,47)"/>
</svg>
