<?xml version="1.0" standalone="no"?>
<!DOCTYPE svg PUBLIC "-//W3C//DTD SVG 20010904//EN"
 "http://www.w3.org/TR/2001/REC-SVG-20010904/DTD/svg10.dtd">
<svg version="1.0" xmlns="http://www.w3.org/2000/svg"
 width="1791.000000pt" height="1791.000000pt" viewBox="0 0 1791.000000 1791.000000"
 preserveAspectRatio="xMidYMid meet">
<g transform="translate(0.000000,1791.000000) scale(0.100000,-0.100000)"
fill="yellowgreen" stroke="none">
<path d="M10090 13423 c-218 -33 -360 -155 -465 -398 -94 -217 -140 -545 -140
-1005 0 -205 15 -787 20 -816 4 -19 10 -21 52 -16 161 17 373 85 558 180 376
192 637 471 715 764 26 99 29 453 4 556 -47 193 -113 353 -191 460 -153 210
-347 307 -553 275z"/>
<path d="M13654 13210 c-30 -4 -99 -31 -165 -64 -103 -51 -147 -74 -330 -174
-56 -30 -195 -110 -439 -252 -145 -85 -546 -325 -805 -483 -335 -205 -395
-242 -435 -267 -102 -66 -272 -167 -335 -200 -38 -21 -126 -68 -195 -105 -108
-58 -361 -184 -685 -341 -50 -24 -144 -64 -210 -89 -130 -50 -209 -81 -295
-115 -206 -81 -368 -214 -449 -370 -24 -47 -47 -98 -50 -115 -11 -49 -40 -44
-97 17 -47 51 -73 85 -244 320 -156 216 -285 334 -450 411 -92 43 -116 51
-230 74 -113 22 -346 12 -470 -20 -103 -27 -105 -28 -200 -64 -291 -112 -522
-313 -597 -518 -25 -70 -26 -338 -1 -405 52 -142 164 -265 298 -329 l75 -36
215 -3 c251 -4 300 3 630 93 69 19 161 44 205 56 44 11 103 27 130 35 198 55
589 122 609 104 10 -10 4 -60 -18 -145 -33 -130 -61 -257 -70 -310 -5 -30 -20
-100 -36 -165 -9 -37 -51 -171 -71 -230 -31 -89 -87 -221 -117 -275 -32 -58
-92 -170 -98 -185 -22 -54 -123 -246 -158 -300 -23 -36 -49 -76 -58 -90 -26
-43 -249 -270 -265 -270 -8 0 -41 -18 -74 -41 -46 -31 -93 -50 -192 -79 l-132
-38 -195 3 c-135 2 -215 7 -260 18 -36 9 -105 23 -155 33 -49 9 -94 20 -100
24 -5 4 -44 18 -85 30 -41 13 -127 47 -191 76 -64 30 -118 54 -121 54 -3 0
-36 20 -74 45 -37 25 -72 45 -78 45 -5 0 -20 10 -33 22 -13 12 -38 31 -57 42
-243 150 -704 638 -955 1011 -69 103 -167 292 -181 348 -5 18 -13 46 -18 62
-17 51 -40 136 -58 215 -9 41 -23 93 -30 115 -8 23 -14 46 -14 53 0 25 -80
182 -111 217 -18 20 -55 48 -83 63 -48 25 -59 27 -186 27 -109 0 -141 -3 -165
-17 -16 -9 -40 -22 -53 -27 -62 -29 -231 -229 -311 -371 -53 -92 -152 -299
-174 -365 -90 -261 -92 -271 -92 -610 0 -257 2 -297 19 -350 44 -139 57 -176
65 -193 4 -9 23 -47 41 -84 74 -153 231 -361 371 -491 46 -42 96 -85 110 -95
15 -9 55 -37 89 -61 207 -145 491 -213 588 -141 34 25 72 93 72 127 -2 55 -93
140 -217 201 -32 16 -89 46 -128 67 -92 50 -163 85 -173 85 -4 0 -15 9 -24 19
-9 11 -47 39 -85 64 -79 52 -217 191 -269 273 -48 75 -82 153 -105 243 -18 66
-19 101 -16 360 4 292 4 295 48 421 83 241 241 483 371 570 34 22 66 39 72 37
6 -2 14 -42 19 -88 4 -46 12 -97 17 -113 6 -16 10 -39 10 -51 0 -31 51 -197
85 -280 41 -96 132 -275 172 -337 23 -37 43 -69 43 -72 0 -9 149 -216 184
-257 17 -20 58 -70 90 -113 51 -66 302 -325 421 -436 57 -52 239 -198 307
-245 31 -22 87 -61 123 -88 37 -26 84 -56 105 -67 21 -11 58 -33 83 -50 84
-56 376 -187 512 -228 203 -62 244 -67 550 -67 302 0 353 6 510 62 148 52 322
153 400 233 21 22 45 40 52 40 15 0 186 189 262 289 31 42 64 77 74 79 10 2
40 -16 69 -39 28 -24 72 -59 98 -79 43 -32 101 -80 340 -284 41 -36 95 -81
120 -100 388 -306 637 -449 915 -529 180 -52 232 -57 595 -57 327 0 338 1 364
21 36 28 69 95 68 139 0 20 -14 62 -35 100 l-35 65 -144 2 c-229 4 -495 23
-608 44 -235 45 -508 177 -800 388 -58 42 -116 83 -130 92 -14 9 -41 31 -60
49 -19 18 -51 43 -70 55 -19 12 -51 37 -71 56 -19 19 -71 63 -114 98 -110 88
-261 243 -286 293 -19 38 -20 43 -6 77 8 20 22 56 32 81 9 25 23 60 31 78 8
18 14 41 14 50 0 10 7 27 15 38 8 10 15 27 15 36 0 10 6 32 14 50 8 18 22 53
31 78 10 25 23 59 30 75 31 73 62 180 75 255 5 30 14 73 19 95 6 22 11 62 11
89 0 44 13 115 42 236 6 25 14 61 18 80 35 151 150 346 267 454 89 81 214 149
393 214 477 174 489 179 910 399 180 95 569 311 790 440 47 27 157 91 245 143
280 162 566 343 723 457 14 10 32 3 107 -46 310 -199 508 -299 726 -369 138
-45 263 -63 414 -63 161 1 279 28 413 95 50 25 95 46 99 46 12 0 87 -163 146
-315 31 -80 70 -213 91 -315 40 -192 46 -239 56 -440 24 -508 4 -845 -61
-1030 -58 -166 -136 -332 -217 -462 -97 -155 -180 -259 -330 -412 -158 -160
-298 -262 -507 -369 -126 -64 -340 -146 -440 -168 -33 -7 -78 -19 -100 -26
-55 -19 -276 -51 -400 -58 -38 -2 -122 -6 -185 -10 -63 -4 -301 -7 -527 -7
l-413 1 -30 -30 c-86 -86 -61 -245 45 -289 16 -6 434 -14 560 -11 11 0 148 2
305 4 301 3 506 20 655 56 44 11 116 27 160 37 44 9 85 21 90 25 6 4 54 22
107 39 53 17 109 37 125 45 15 8 34 15 41 15 26 0 324 161 420 226 375 257
639 561 820 944 47 100 95 220 113 285 4 17 17 62 29 100 11 39 25 95 29 125
5 30 14 80 20 110 22 113 32 285 34 600 2 376 -11 529 -65 750 -6 25 -14 63
-19 85 -11 54 -29 123 -44 165 -7 19 -20 60 -29 90 -23 72 -43 125 -126 328
-30 76 -122 249 -195 372 -184 306 -389 521 -610 640 -82 45 -154 68 -260 85
-98 16 -114 16 -191 5z"/>
<path d="M4410 11123 c-49 -9 -169 -72 -242 -125 -122 -91 -314 -295 -396
-423 -62 -95 -152 -274 -152 -301 0 -8 -4 -23 -9 -33 -5 -9 -13 -44 -16 -78
-7 -59 -7 -61 29 -100 46 -52 103 -78 151 -69 70 13 150 112 256 311 68 129
69 132 103 185 36 57 93 111 209 200 237 179 266 214 267 317 0 56 -3 66 -30
93 -26 27 -35 30 -87 29 -32 -1 -69 -4 -83 -6z"/>
<path d="M11561 10369 c-118 -23 -226 -136 -271 -282 -19 -61 -2 -67 73 -30
34 17 73 35 87 39 14 3 34 13 45 20 11 8 31 14 46 14 15 0 46 7 70 16 69 25
281 6 315 -29 17 -17 34 -5 34 23 0 47 -69 147 -130 190 -68 49 -157 61 -269
39z"/>
<path d="M5135 7801 c-22 -10 -55 -33 -72 -49 -32 -30 -33 -33 -33 -115 0 -46
-4 -97 -10 -113 -5 -16 -14 -60 -19 -99 -12 -82 -35 -193 -51 -250 -7 -22 -18
-65 -26 -95 -24 -88 -75 -252 -90 -287 -8 -17 -14 -38 -14 -47 0 -8 -6 -30
-14 -48 -8 -18 -21 -52 -30 -75 -46 -123 -54 -142 -104 -254 -65 -144 -217
-388 -299 -480 -25 -27 -100 -97 -167 -155 -239 -209 -344 -343 -390 -503 -24
-80 -21 -241 4 -315 76 -215 255 -301 584 -282 239 14 385 66 731 261 66 37
140 79 165 92 25 14 68 38 95 53 151 85 415 181 580 212 76 14 519 17 1635 9
615 -5 785 1 1110 35 397 42 772 137 1083 274 54 23 100 46 103 51 3 5 20 9
39 9 24 0 39 -7 54 -26 12 -15 141 -151 288 -303 147 -152 324 -334 393 -406
69 -71 131 -134 139 -141 9 -6 11 -18 7 -29 -7 -20 -30 -20 -476 5 -102 5
-383 19 -625 30 -242 11 -535 25 -652 31 -132 6 -550 9 -1110 6 -821 -3 -918
-6 -1133 -25 -526 -49 -969 -99 -1250 -142 -36 -5 -112 -17 -170 -25 -154 -23
-349 -54 -400 -64 -25 -5 -83 -16 -130 -25 -103 -19 -308 -60 -410 -82 -41 -9
-133 -32 -205 -51 -71 -19 -143 -39 -160 -43 -69 -17 -223 -74 -303 -111 -200
-94 -249 -174 -177 -288 26 -42 69 -71 106 -71 12 0 58 9 103 19 91 22 268 64
366 87 99 23 301 73 340 84 80 22 554 136 715 171 191 42 415 79 750 125 263
35 635 72 975 96 407 29 1712 3 2590 -52 314 -19 766 -50 940 -65 96 -8 213
-17 260 -20 226 -17 1512 -136 1895 -176 118 -13 161 -4 199 42 22 26 26 41
26 93 0 59 -2 64 -37 98 -118 113 -373 168 -1008 216 l-90 7 -5 190 c-3 105
-9 196 -13 203 -5 7 -12 37 -17 65 -9 60 -27 137 -45 187 -12 32 -20 62 -46
163 -5 21 -13 45 -18 55 -5 9 -23 64 -41 122 -17 58 -38 120 -46 138 -8 18
-14 43 -14 55 -1 12 -7 33 -15 47 -8 14 -15 39 -15 55 0 17 -7 41 -15 55 -8
14 -14 36 -15 49 0 13 -6 47 -14 75 -20 73 -44 193 -50 251 -3 28 -11 82 -16
120 -12 76 -6 175 16 271 16 71 29 104 96 243 62 130 67 155 36 201 -70 104
-269 109 -365 9 -110 -116 -139 -401 -82 -804 5 -38 14 -101 19 -140 10 -70
18 -110 46 -235 8 -36 14 -75 14 -86 0 -12 6 -44 14 -70 17 -59 34 -128 52
-214 8 -36 19 -84 24 -108 5 -23 14 -51 20 -61 5 -11 10 -32 10 -48 0 -15 6
-45 14 -68 8 -22 21 -69 30 -105 10 -36 23 -86 31 -111 8 -26 15 -56 15 -68 0
-12 7 -38 15 -57 8 -20 18 -64 21 -100 8 -74 1 -78 -69 -43 -189 97 -337 230
-960 865 -238 243 -304 294 -384 294 -93 0 -171 -26 -398 -134 -138 -66 -262
-104 -395 -121 -25 -3 -83 -17 -130 -30 -154 -43 -250 -55 -620 -81 -263 -18
-1051 -24 -1860 -14 -228 3 -458 1 -510 -3 -257 -22 -445 -75 -685 -192 -130
-64 -161 -81 -355 -191 -292 -167 -487 -237 -696 -251 -117 -8 -159 5 -179 54
-42 101 11 204 189 364 234 211 269 244 329 319 34 43 95 132 135 198 83 137
222 408 222 434 0 9 4 19 10 23 5 3 14 20 19 38 10 33 23 68 61 167 12 30 25
69 30 85 5 17 20 64 34 105 36 103 36 102 101 345 26 96 38 150 45 205 5 30
13 75 18 100 17 72 26 321 13 353 -21 55 -145 76 -226 38z"/>
<path d="M4619 7683 c-30 -27 -65 -61 -79 -77 -56 -66 -170 -209 -170 -215 0
-3 -14 -22 -31 -41 -17 -19 -39 -46 -47 -60 -9 -14 -35 -50 -57 -80 -23 -30
-77 -107 -120 -170 -138 -203 -174 -246 -389 -471 -252 -263 -334 -366 -402
-505 -27 -55 -29 -67 -29 -175 0 -111 1 -117 28 -152 52 -69 66 -72 307 -72
228 0 245 3 371 56 76 32 115 60 151 108 36 50 40 97 12 155 -30 62 -63 80
-153 84 -70 4 -85 1 -152 -28 -41 -18 -93 -35 -116 -38 -37 -4 -43 -2 -43 14
0 21 96 136 354 424 380 423 664 773 741 915 21 39 43 76 49 84 6 8 11 54 11
105 0 108 -14 137 -78 167 -69 31 -98 25 -158 -28z"/>
<path d="M11604 6873 c-38 -7 -57 -40 -62 -103 -3 -47 0 -68 17 -101 27 -50
135 -187 278 -351 59 -68 120 -139 135 -158 15 -19 43 -53 63 -75 104 -114
289 -367 343 -467 35 -67 42 -92 31 -109 -7 -12 -14 -11 -41 5 -39 22 -264
134 -328 164 -124 57 -249 69 -296 29 -24 -21 -26 -28 -25 -101 1 -60 6 -87
22 -112 56 -92 290 -232 515 -310 l109 -38 162 1 c148 1 166 3 198 23 46 28
98 94 119 150 16 43 16 48 -4 110 -51 159 -244 490 -423 724 -23 30 -62 83
-87 117 -24 34 -49 67 -55 73 -5 6 -53 65 -106 131 -119 150 -300 339 -358
377 -39 24 -54 28 -115 27 -39 -1 -81 -4 -92 -6z"/>
</g>
</svg>
