<?xml version="1.0" encoding="UTF-8"?>
<!-- Generator: https://ezgif.com/webp-to-svg -->
<svg version="1.1" xmlns="http://www.w3.org/2000/svg" width="282" height="200">
<path d="M0 0 C1.98 0.5 1.98 0.5 4 1 C3.44 6.82 2.26 11.96 0.38 17.48 C-0 18.64 -0 18.64 -0.4 19.83 C-0.94 21.46 -1.49 23.08 -2.04 24.71 C-2.88 27.19 -3.7 29.67 -4.52 32.15 C-5.05 33.74 -5.58 35.33 -6.12 36.92 C-6.36 37.65 -6.6 38.39 -6.86 39.15 C-8.2 43.08 -9.69 46.51 -12 50 C-14.31 49.81 -14.31 49.81 -17 49 C-20.39 44.98 -21.07 40.04 -22 35 C-23.2 37.39 -24.39 39.79 -25.56 42.19 C-27 45 -27 45 -28 46 C-30.31 46.44 -30.31 46.44 -33 46 C-37.47 41.12 -41 32.63 -41 26 C-41.66 26 -42.32 26 -43 26 C-43.25 26.81 -43.25 26.81 -43.5 27.63 C-45.39 33.53 -47.75 39.08 -50.38 44.69 C-53.69 51.86 -56.53 58.98 -58.83 66.54 C-60 69 -60 69 -62.01 69.99 C-62.67 69.99 -63.32 70 -64 70 C-64.66 69.34 -65.32 68.68 -66 68 C-65.98 66.15 -65.98 66.15 -65.62 63.94 C-64.9 59.28 -64.94 54.7 -65 50 C-65.17 50.53 -65.34 51.07 -65.52 51.62 C-66.3 54.04 -67.09 56.46 -67.88 58.88 C-68.28 60.14 -68.28 60.14 -68.69 61.43 C-69.09 62.63 -69.09 62.63 -69.49 63.87 C-69.73 64.61 -69.97 65.35 -70.22 66.12 C-71 68 -71 68 -73 70 C-75.44 70 -75.44 70 -78 69 C-81.08 64.44 -81.99 59.32 -83 54 C-83.35 54.85 -83.7 55.71 -84.06 56.59 C-84.51 57.69 -84.97 58.8 -85.44 59.94 C-86.12 61.59 -86.12 61.59 -86.81 63.28 C-88 66 -88 66 -89 67 C-91.81 67.38 -91.81 67.38 -95 67 C-97.2 64.48 -97.2 64.48 -99 62 C-99.31 63.01 -99.63 64.03 -99.95 65.07 C-100.38 66.42 -100.82 67.77 -101.25 69.12 C-101.45 69.79 -101.66 70.46 -101.87 71.14 C-103.71 76.83 -105.87 81.58 -111 85 C-113.44 85.19 -113.44 85.19 -116 84 C-119.3 78.8 -120.54 72.91 -122 67 C-127.09 96.53 -131.22 125.78 -131.62 155.8 C-131.66 157.71 -131.66 157.71 -131.69 159.66 C-131.7 160.79 -131.72 161.92 -131.73 163.08 C-131.99 165.92 -132.53 167.59 -134 170 C-136.33 170.04 -138.67 170.04 -141 170 C-142 169 -142 169 -142.12 166.79 C-142.12 165.82 -142.12 164.84 -142.11 163.84 C-142.11 162.74 -142.11 161.64 -142.11 160.5 C-142.11 159.3 -142.1 158.11 -142.1 156.87 C-142.1 155.04 -142.1 155.04 -142.09 153.18 C-142.09 149.26 -142.08 145.35 -142.06 141.44 C-142.06 138.79 -142.05 136.15 -142.05 133.5 C-142.04 127 -142.02 120.5 -142 114 C-143.17 114.39 -144.35 114.77 -145.56 115.17 C-162.69 120.74 -179.99 125.68 -197.31 130.63 C-202 131.98 -206.7 133.32 -211.39 134.67 C-215.26 135.78 -219.14 136.89 -223.01 137.99 C-230.17 140.04 -237.33 142.09 -244.47 144.2 C-247.71 145.15 -250.95 146.1 -254.19 147.05 C-255.73 147.5 -257.27 147.95 -258.8 148.41 C-260.92 149.05 -263.04 149.67 -265.17 150.29 C-266.37 150.64 -267.57 151 -268.81 151.37 C-271.99 152 -273.92 151.9 -277 151 C-277 149.68 -277 148.36 -277 147 C-274.23 145.99 -271.46 145 -268.69 144 C-267.9 143.71 -267.12 143.43 -266.31 143.13 C-265.55 142.86 -264.79 142.59 -264.01 142.31 C-262.97 141.94 -262.97 141.94 -261.9 141.55 C-260 141 -260 141 -257 141 C-257.03 140.1 -257.06 139.2 -257.09 138.27 C-257.9 112.63 -258.19 87.01 -258.19 61.36 C-258.19 56.17 -258.2 50.98 -258.22 45.79 C-258.23 41.75 -258.23 37.7 -258.23 33.66 C-258.23 31.74 -258.23 29.82 -258.24 27.9 C-258.25 25.26 -258.25 22.62 -258.24 19.98 C-258.25 19.19 -258.25 18.41 -258.26 17.6 C-258.23 12.23 -258.23 12.23 -256 10 C-252.5 9.69 -252.5 9.69 -249 10 C-246.74 13.4 -246.77 14.51 -246.85 18.48 C-246.87 19.56 -246.88 20.63 -246.9 21.74 C-247.05 26.59 -247.22 31.44 -247.44 36.29 C-247.51 37.87 -247.51 37.87 -247.59 39.49 C-247.74 42.94 -247.9 46.39 -248.06 49.84 C-248.17 52.25 -248.28 54.67 -248.39 57.08 C-248.62 62.12 -248.85 67.16 -249.08 72.2 C-249.38 78.66 -249.67 85.12 -249.96 91.58 C-250.19 96.55 -250.41 101.53 -250.64 106.51 C-250.75 108.89 -250.86 111.27 -250.97 113.65 C-251.12 116.97 -251.27 120.3 -251.43 123.62 C-251.47 124.6 -251.51 125.58 -251.56 126.59 C-251.6 127.5 -251.65 128.41 -251.69 129.34 C-251.73 130.13 -251.76 130.91 -251.8 131.72 C-252.02 134.2 -252.47 136.57 -253 139 C-252.11 138.69 -251.22 138.38 -250.3 138.06 C-226.39 129.79 -202.39 121.78 -178.36 113.88 C-176.06 113.12 -173.75 112.36 -171.45 111.61 C-167.79 110.4 -164.13 109.2 -160.47 108 C-159.11 107.55 -157.74 107.1 -156.37 106.65 C-154.49 106.03 -152.61 105.41 -150.73 104.8 C-149.66 104.45 -148.6 104.1 -147.51 103.74 C-145 103 -145 103 -143 103 C-142.67 97.72 -142.34 92.44 -142 87 C-142.99 88.65 -143.98 90.3 -145 92 C-148 92.56 -148 92.56 -151 92 C-153.26 89.74 -153.98 88.05 -155 85 C-155.66 85.99 -156.32 86.98 -157 88 C-159.38 88.56 -159.38 88.56 -162 88 C-166.56 82.89 -170 74.85 -170 68 C-170.66 68 -171.32 68 -172 68 C-172.25 68.81 -172.25 68.81 -172.5 69.63 C-174.39 75.53 -176.75 81.08 -179.38 86.69 C-182.69 93.86 -185.53 100.98 -187.83 108.54 C-189 111 -189 111 -191.01 111.99 C-191.67 111.99 -192.32 112 -193 112 C-195 110 -195 110 -195.14 108.12 C-195.08 107.38 -195.03 106.63 -194.98 105.87 C-194.9 104.66 -194.9 104.66 -194.82 103.43 C-194.76 102.58 -194.69 101.74 -194.62 100.88 C-194.54 99.6 -194.54 99.6 -194.45 98.3 C-194.31 96.2 -194.16 94.1 -194 92 C-194.17 92.53 -194.34 93.07 -194.52 93.62 C-195.3 96.04 -196.09 98.46 -196.88 100.88 C-197.14 101.72 -197.41 102.56 -197.69 103.43 C-197.96 104.23 -198.22 105.04 -198.49 105.87 C-198.85 106.98 -198.85 106.98 -199.22 108.12 C-200 110 -200 110 -202 112 C-204.44 111.94 -204.44 111.94 -207 111 C-209.77 107.23 -210.7 103.69 -211.56 99.12 C-211.68 98.48 -211.81 97.83 -211.93 97.16 C-216.6 71.7 -216.6 71.7 -213.81 67 C-212 66 -212 66 -209.44 66.19 C-207 67 -207 67 -205 69 C-204.88 71.8 -204.86 74.51 -204.94 77.31 C-205.05 84.95 -204.75 92.4 -204 100 C-196.59 88.89 -193.06 72.64 -193.21 59.4 C-193.26 54.39 -193.26 54.39 -191.68 52.01 C-190 51 -190 51 -186.88 51.19 C-185.93 51.46 -184.98 51.72 -184 52 C-182.73 54.55 -182.97 56.16 -183.12 59.01 C-183.17 59.99 -183.22 60.98 -183.27 62 C-183.32 63.03 -183.38 64.06 -183.44 65.12 C-183.49 66.17 -183.54 67.21 -183.6 68.28 C-183.73 70.85 -183.86 73.43 -184 76 C-183.29 74.34 -183.29 74.34 -182.57 72.64 C-181.95 71.18 -181.32 69.71 -180.69 68.25 C-180.38 67.52 -180.07 66.79 -179.75 66.04 C-176.49 58.49 -176.49 58.49 -174 56 C-170.31 55.75 -170.31 55.75 -167 56 C-163.17 62.74 -161.52 69.42 -160 77 C-158.04 74.06 -157.68 73 -157.29 69.65 C-157.18 68.8 -157.07 67.94 -156.95 67.07 C-156.74 65.3 -156.53 63.53 -156.32 61.75 C-155.53 55.75 -154.21 50.21 -151 45 C-147.15 42.43 -145.41 43.17 -141 44 C-140.67 42.35 -140.34 40.7 -140 39 C-138.35 39.33 -136.7 39.66 -135 40 C-134.97 41.2 -134.95 42.39 -134.92 43.62 C-134.83 48.06 -134.73 52.49 -134.63 56.93 C-134.58 58.84 -134.54 60.76 -134.5 62.68 C-134.44 65.44 -134.38 68.2 -134.32 70.96 C-134.29 72.25 -134.29 72.25 -134.27 73.56 C-134.25 74.36 -134.23 75.16 -134.21 75.99 C-134.19 76.69 -134.17 77.4 -134.16 78.12 C-134.06 80.23 -134.06 80.23 -133 83 C-132.04 79.05 -131.08 75.11 -130.12 71.16 C-129.79 69.82 -129.47 68.48 -129.14 67.14 C-126.98 58.29 -124.86 49.45 -123.44 40.44 C-123 38 -123 38 -122 37 C-119.06 36.81 -119.06 36.81 -116 37 C-114 39 -114 39 -113.79 41.84 C-113.81 43.03 -113.82 44.22 -113.84 45.44 C-113.86 47.4 -113.86 47.4 -113.87 49.4 C-113.89 50.79 -113.92 52.18 -113.94 53.56 C-114.11 65.81 -114.11 65.81 -113 78 C-112.34 78 -111.68 78 -111 78 C-110.52 76.31 -110.04 74.63 -109.56 72.94 C-109.3 72 -109.03 71.06 -108.75 70.09 C-106.84 62.23 -106.71 54.35 -106.48 46.3 C-106.45 45.39 -106.41 44.48 -106.38 43.54 C-106.34 42.31 -106.34 42.31 -106.3 41.04 C-106 39 -106 39 -104 37 C-101 36.69 -101 36.69 -98 37 C-96.11 39.84 -95.67 40.95 -95.18 44.16 C-95.06 44.95 -94.93 45.75 -94.81 46.56 C-94.68 47.39 -94.56 48.21 -94.44 49.06 C-94.19 50.7 -93.94 52.34 -93.68 53.97 C-93.58 54.7 -93.47 55.42 -93.36 56.17 C-93.07 58.09 -93.07 58.09 -92 60 C-87.22 50.45 -85.5 40.03 -86.19 29.43 C-86 27 -86 27 -84.66 25.16 C-83 24 -83 24 -80.44 24.19 C-78 25 -78 25 -76 27 C-75.84 29.91 -75.84 29.91 -75.94 33.62 C-76.08 41.79 -75.6 49.86 -75 58 C-67.59 46.89 -64.06 30.64 -64.21 17.4 C-64.26 12.39 -64.26 12.39 -62.68 10.01 C-61 9 -61 9 -57.88 9.19 C-56.93 9.46 -55.98 9.72 -55 10 C-53.73 12.55 -53.97 14.16 -54.12 17.01 C-54.17 17.99 -54.22 18.98 -54.27 20 C-54.32 21.03 -54.38 22.06 -54.44 23.12 C-54.49 24.17 -54.54 25.21 -54.6 26.28 C-54.73 28.85 -54.86 31.43 -55 34 C-54.53 32.89 -54.06 31.78 -53.57 30.64 C-52.95 29.18 -52.32 27.71 -51.69 26.25 C-51.38 25.52 -51.07 24.79 -50.75 24.04 C-47.49 16.49 -47.49 16.49 -45 14 C-41.31 13.75 -41.31 13.75 -38 14 C-34.8 19.74 -33.05 25.15 -31.61 31.56 C-31.24 33.93 -31.24 33.93 -30 35 C-27.65 26.4 -25.59 18.22 -25.27 9.26 C-25 7 -25 7 -23 5 C-20 4.69 -20 4.69 -17 5 C-14.95 8.07 -14.76 8.59 -14.84 12.03 C-14.86 13.21 -14.86 13.21 -14.88 14.41 C-14.9 15.25 -14.92 16.08 -14.94 16.94 C-15.04 24.36 -14.78 31.61 -14 39 C-10.25 30.2 -7.54 21.18 -4.82 12.02 C-4.49 10.9 -4.15 9.78 -3.8 8.63 C-3.51 7.62 -3.21 6.61 -2.9 5.57 C-2 3 -2 3 0 0 Z M-145 54 C-147.33 59.83 -148.49 65.43 -149.25 71.62 C-149.34 72.34 -149.43 73.06 -149.53 73.79 C-150.05 78.42 -149.84 82.42 -149 87 C-143.75 82.72 -143.49 74.62 -142.31 68.31 C-141.92 64.2 -141.92 60.13 -142 56 C-142.66 56 -143.32 56 -144 56 C-144.33 55.34 -144.66 54.68 -145 54 Z " fill="#FFFFFF" transform="translate(277,30)"/>
<path d="M0 0 C3 -0.31 3 -0.31 6 0 C8 2 8 2 8.23 4.06 C8.21 5.24 8.21 5.24 8.19 6.44 C8.18 7.61 8.18 7.61 8.17 8.81 C8 11 8 11 7 14 C4.69 14.69 4.69 14.69 2 15 C-0.11 13.43 -0.89 12.39 -1.58 9.84 C-1.66 9.07 -1.73 8.3 -1.81 7.5 C-1.9 6.73 -1.99 5.95 -2.08 5.16 C-2 3 -2 3 0 0 Z " fill="#FFFFFF" transform="translate(251,0)"/>
<path d="M0 0 C1.98 0.66 3.96 1.32 6 2 C6.28 5.71 6.46 9.3 6 13 C3.5 15.19 3.5 15.19 1 16 C-2.04 13.64 -3.34 11.73 -4 8 C-4 4 -4 4 -2.06 1.5 C-1.38 1 -0.7 0.51 0 0 Z " fill="#FFFFFF" transform="translate(192,19)"/>
<path d="M0 0 C0.78 0.25 1.57 0.49 2.38 0.75 C4.1 4.19 3.89 7.99 3.38 11.75 C1.38 14.31 1.38 14.31 -0.62 15.75 C-2.5 15.12 -2.5 15.12 -4.62 13.75 C-6.67 9.46 -6.97 6.31 -5.62 1.75 C-2.62 -0.25 -2.62 -0.25 0 0 Z " fill="#FFFFFF" transform="translate(65.625,61.25)"/>
</svg>
