<?xml version="1.0" standalone="no"?>
<!DOCTYPE svg PUBLIC "-//W3C//DTD SVG 20010904//EN"
 "http://www.w3.org/TR/2001/REC-SVG-20010904/DTD/svg10.dtd">
<svg version="1.0" xmlns="http://www.w3.org/2000/svg"
 width="495.000000pt" height="114.000000pt" viewBox="0 0 495.000000 114.000000"
 preserveAspectRatio="xMidYMid meet">
<g transform="translate(0.000000,114.000000) scale(0.100000,-0.100000)"
fill="#ffffff" stroke="none">
<path d="M58 884 c-2 -1 -3 -148 -2 -326 l0 -323 84 -3 83 -3 9 13 c5 7 6 43
2 79 l-6 67 14 8 13 9 280 0 280 0 42 26 c54 32 85 79 102 151 l14 57 -7 47
c-3 27 -15 67 -27 90 l-20 43 -37 22 -37 21 -79 14 -79 14 -313 -1 c-173 -1
-315 -3 -316 -5z m710 -181 c6 -9 12 -36 12 -60 l0 -42 -21 -20 -21 -19 -237
-4 c-130 -2 -246 0 -257 4 l-22 7 3 66 c4 98 -18 91 300 87 l230 -3 13 -16z"/>
<path d="M1044 876 c-3 -8 -1 -110 4 -228 l9 -214 28 -48 28 -48 45 -33 45
-32 81 -24 81 -23 155 1 155 1 65 22 c137 46 184 84 214 174 l16 46 2 208 3
207 -90 0 -90 0 -1 -185 -1 -185 -11 -27 c-37 -90 -234 -134 -404 -90 l-66 17
-35 32 -36 32 -7 48 c-4 26 -4 113 -1 194 l6 146 -11 11 -12 12 -83 0 -84 0
-5 -14z"/>
<path d="M2089 878 c0 -7 -1 -154 -2 -326 l-2 -313 20 -5 c11 -2 200 -3 420
-2 l400 3 3 68 3 69 -13 15 -13 16 -305 -6 -305 -6 -13 8 -14 8 2 229 c1 126
2 235 1 242 l-1 12 -90 0 -90 0 -1 -12z"/>
<path d="M3165 874 c-158 -50 -201 -105 -176 -223 l11 -52 27 -25 c16 -14 48
-34 73 -45 l44 -20 171 -10 c93 -5 214 -13 268 -17 l98 -8 16 -17 17 -17 -10
-27 -9 -27 -55 -14 -55 -14 -184 12 c-102 6 -211 18 -243 26 -32 8 -77 14
-100 12 l-43 -3 -9 -63 c-11 -75 -15 -70 71 -88 174 -38 526 -41 652 -7 l65
18 31 33 32 32 7 58 c11 101 -14 151 -98 194 l-59 30 -156 9 c-162 9 -372 26
-377 31 -1 2 -5 14 -9 28 l-6 25 15 20 14 20 220 -1 219 -2 70 -17 c38 -9 80
-15 94 -13 l24 3 12 55 c7 30 10 62 8 70 l-5 16 -93 14 -92 14 -215 3 -215 2
-50 -15z"/>
<path d="M3984 878 c-4 -6 -6 -72 -4 -147 4 -190 4 -239 0 -376 l-4 -120 435
0 434 0 0 70 0 70 -338 1 c-185 0 -340 4 -344 8 -3 3 -8 29 -9 56 l-2 50 11 7
c7 5 158 8 337 8 l325 0 -1 55 0 55 -327 1 -328 1 -8 9 c-5 5 -7 33 -4 62 l6
53 334 -2 335 -1 9 9 10 10 -3 64 -3 64 -427 2 -427 2 -7 -11z"/>
</g>
</svg>
